<?xml version="1.0" encoding="utf-8"?>
<!-- Generator: Adobe Illustrator 19.0.0, SVG Export Plug-In . SVG Version: 6.00 Build 0)  -->
<svg version="1.1" id="Calque_4" xmlns="http://www.w3.org/2000/svg" xmlns:xlink="http://www.w3.org/1999/xlink" x="0px" y="0px"
	 viewBox="0 0 1692 823" style="enable-background:new 0 0 1692 823;" xml:space="preserve">
<style type="text/css">
	.st0{clip-path:url(#SVGID_2_);}
	.st1{fill:url(#XMLID_8_);}
	.st2{clip-path:url(#SVGID_4_);}
	.st3{fill:url(#XMLID_10_);}
	.st4{fill:url(#XMLID_11_);}
	.st5{fill:url(#XMLID_12_);}
	.st6{fill:url(#XMLID_13_);}
	.st7{clip-path:url(#SVGID_6_);}
	.st8{fill:url(#XMLID_14_);}
	.st9{fill:url(#XMLID_15_);}
	.st10{fill:url(#XMLID_17_);}
</style>
<g>
	<defs>
		<rect id="SVGID_1_" width="1692" height="823"/>
	</defs>
	<clipPath id="SVGID_2_">
		<use xlink:href="#SVGID_1_"  style="overflow:visible;"/>
	</clipPath>
	<g id="Calque_2" class="st0">
		
			<linearGradient id="XMLID_8_" gradientUnits="userSpaceOnUse" x1="846" y1="823" x2="846" y2="-3.798232e-008" gradientTransform="matrix(1 0 0 -1 0 823)">
			<stop  offset="0" style="stop-color:#0A4988"/>
			<stop  offset="0.4255" style="stop-color:#789BBD"/>
			<stop  offset="0.8229" style="stop-color:#D9E3EC"/>
			<stop  offset="1" style="stop-color:#FFFFFF"/>
		</linearGradient>
		<rect id="XMLID_7_" class="st1" width="1692" height="823"/>
	</g>
</g>
<g>
	<defs>
		<rect id="SVGID_3_" width="1692" height="823"/>
	</defs>
	<clipPath id="SVGID_4_">
		<use xlink:href="#SVGID_3_"  style="overflow:visible;"/>
	</clipPath>
	<g id="Calque_1" class="st2">
		<g id="XMLID_2_">
			
				<image style="overflow:visible;opacity:0.49;enable-background:new    ;" width="888" height="596" id="XMLID_32_" xlink:href="C94EC9F5.png"  transform="matrix(0.2386 0 0 0.2384 103.5851 68.9085)">
			</image>
			<g id="XMLID_20_">
				
					<linearGradient id="XMLID_10_" gradientUnits="userSpaceOnUse" x1="163.9642" y1="735.3604" x2="234.554" y2="617.8792" gradientTransform="matrix(1 0 0 -1 0 823)">
					<stop  offset="0" style="stop-color:#FFFFFF"/>
					<stop  offset="0.1913" style="stop-color:#FBF9F7"/>
					<stop  offset="0.3919" style="stop-color:#F2EEE8"/>
					<stop  offset="0.5968" style="stop-color:#E5DFD4"/>
					<stop  offset="0.8032" style="stop-color:#D5CBB9"/>
					<stop  offset="1" style="stop-color:#C2B59B"/>
				</linearGradient>
				<path id="XMLID_31_" class="st3" d="M145.5,174.6c0,0-28,9-33.3-14.8s21.1-30.6,33.3-22.2c-17-8.4-13.2-26.4-6.3-34.3
					s31.7-13.2,37,10.6c-9.5-24.3,7.4-38,23.2-37c15.8,1.1,24.8,19.5,18.5,33.8c4.8-20.6,43.8-31.7,54.9-1.6s-15.3,37.5-18,36.4
					c9.4-2.9,37-8.4,38.5,12.7c1.6,21.1-28,28-51.2,11.1c5.8,9.5-3.7,16.4-11.6,18c-7.9,1.6-23.8-1.6-17.4-15.8
					c-3.2,13.7-15.3,20.3-26.4,16.2c-11.1-4.1-12.1-14.1-8.4-17.8C173.5,179.4,155.6,192.1,145.5,174.6z"/>
			</g>
		</g>
		<g id="XMLID_4_">
			
				<image style="overflow:visible;opacity:0.49;enable-background:new    ;" width="1104" height="729" id="XMLID_34_" xlink:href="C94EC9F7.png"  transform="matrix(0.2391 0 0 0.2387 458.2112 245.904)">
			</image>
			<g id="XMLID_22_">
				
					<linearGradient id="XMLID_11_" gradientUnits="userSpaceOnUse" x1="533.6448" y1="555.2677" x2="624.4304" y2="404.1754" gradientTransform="matrix(1 0 0 -1 0 823)">
					<stop  offset="0" style="stop-color:#FFFFFF"/>
					<stop  offset="0.1913" style="stop-color:#FBF9F7"/>
					<stop  offset="0.3919" style="stop-color:#F2EEE8"/>
					<stop  offset="0.5968" style="stop-color:#E5DFD4"/>
					<stop  offset="0.8032" style="stop-color:#D5CBB9"/>
					<stop  offset="1" style="stop-color:#C2B59B"/>
				</linearGradient>
				<path id="XMLID_33_" class="st4" d="M509.9,379.5c0,0-36,11.5-42.8-19s27.1-39.4,42.8-28.5c-21.8-10.9-17-33.9-8.1-44.1
					c8.8-10.2,40.7-17,47.5,13.6c-12.2-31.2,9.5-48.9,29.9-47.5s31.9,25.1,23.8,43.4c6.1-26.5,56.3-40.7,70.6-2
					s-19.7,48.2-23.1,46.8c12-3.7,47.5-10.9,49.5,16.3c2,27.1-36,36-65.8,14.3c7.5,12.2-4.8,21-14.9,23.1c-10.2,2-30.5-2-22.4-20.4
					c-4.1,17.6-19.7,26.1-33.9,20.8c-14.3-5.2-15.6-18.1-10.9-22.9C545.8,385.6,522.8,401.9,509.9,379.5z"/>
			</g>
		</g>
		<g id="XMLID_9_">
			
				<image style="overflow:visible;opacity:0.49;enable-background:new    ;" width="1221" height="800" id="XMLID_36_" xlink:href="C94EC9F2.png"  transform="matrix(0.2388 0 0 0.2388 896.9715 59.5335)">
			</image>
			<g id="XMLID_24_">
				
					<linearGradient id="XMLID_12_" gradientUnits="userSpaceOnUse" x1="980.3146" y1="740.0112" x2="1081.8505" y2="571.0272" gradientTransform="matrix(1 0 0 -1 0 823)">
					<stop  offset="0" style="stop-color:#FFFFFF"/>
					<stop  offset="0.1913" style="stop-color:#FBF9F7"/>
					<stop  offset="0.3919" style="stop-color:#F2EEE8"/>
					<stop  offset="0.5968" style="stop-color:#E5DFD4"/>
					<stop  offset="0.8032" style="stop-color:#D5CBB9"/>
					<stop  offset="1" style="stop-color:#C2B59B"/>
				</linearGradient>
				<path id="XMLID_35_" class="st5" d="M953.8,208c0,0-40.2,12.9-47.8-21.3s30.4-44,47.8-31.9c-24.4-12.1-19-38-9.1-49.3
					s45.5-19,53.1,15.2c-13.7-34.9,10.6-54.6,33.4-53.1c22.8,1.5,35.7,28.1,26.6,48.6c6.8-29.6,63-45.5,78.9-2.3
					c15.9,43.3-22,53.9-25.8,52.4c13.5-4.1,53.1-12.1,55.4,18.2c2.3,30.4-40.2,40.2-73.6,15.9c8.3,13.6-5.3,23.5-16.7,25.8
					c-11.4,2.3-34.2-2.3-25-22.8c-4.6,19.7-22,29.1-38,23.3c-15.9-5.8-17.5-20.3-12.1-25.6C994,214.9,968.2,233.1,953.8,208z"/>
			</g>
		</g>
		<g id="XMLID_16_">
			
				<image style="overflow:visible;opacity:0.49;enable-background:new    ;" width="1129" height="746" id="XMLID_30_" xlink:href="C94EC9F3.png"  transform="matrix(0.24 0 0 0.239 1349.0203 263.0915)">
			</image>
			<g id="XMLID_19_">
				
					<linearGradient id="XMLID_13_" gradientUnits="userSpaceOnUse" x1="1426.4291" y1="537.6817" x2="1519.9314" y2="382.0675" gradientTransform="matrix(1 0 0 -1 0 823)">
					<stop  offset="0" style="stop-color:#FFFFFF"/>
					<stop  offset="0.1913" style="stop-color:#FBF9F7"/>
					<stop  offset="0.3919" style="stop-color:#F2EEE8"/>
					<stop  offset="0.5968" style="stop-color:#E5DFD4"/>
					<stop  offset="0.8032" style="stop-color:#D5CBB9"/>
					<stop  offset="1" style="stop-color:#C2B59B"/>
				</linearGradient>
				<path id="XMLID_29_" class="st6" d="M1402,400.5c0,0-37,11.9-44-19.6s28-40.5,44-29.4c-22.5-11.2-17.5-34.9-8.4-45.4
					s41.9-17.5,48.9,14c-12.6-32.2,9.8-50.3,30.8-48.9s32.8,25.9,24.5,44.7c6.3-27.3,58-41.9,72.7-2.1s-20.3,49.6-23.8,48.2
					c12.4-3.8,48.9-11.2,51,16.8s-37,37-67.8,14.7c7.7,12.6-4.9,21.7-15.4,23.8s-31.5-2.1-23.1-21c-4.2,18.2-20.3,26.8-34.9,21.5
					c-14.7-5.4-16.1-18.7-11.2-23.6C1439,406.8,1415.2,423.5,1402,400.5z"/>
			</g>
		</g>
	</g>
</g>
<g>
	<defs>
		<rect id="SVGID_5_" width="1692" height="823"/>
	</defs>
	<clipPath id="SVGID_6_">
		<use xlink:href="#SVGID_5_"  style="overflow:visible;"/>
	</clipPath>
	<g id="Calque_3" class="st7">
		
			<linearGradient id="XMLID_14_" gradientUnits="userSpaceOnUse" x1="186.4754" y1="205.6057" x2="299.4847" y2="-88.7936" gradientTransform="matrix(1 0 0 -1 0 823)">
			<stop  offset="0" style="stop-color:#8DC63F"/>
			<stop  offset="1.159495e-002" style="stop-color:#8AC43F"/>
			<stop  offset="0.1846" style="stop-color:#66AF42"/>
			<stop  offset="0.3651" style="stop-color:#47A243"/>
			<stop  offset="0.5543" style="stop-color:#289A44"/>
			<stop  offset="0.7576" style="stop-color:#049544"/>
			<stop  offset="1" style="stop-color:#009444"/>
		</linearGradient>
		<path id="XMLID_5_" class="st8" d="M0,823c0,0,169.9-225.8,265.2-232s265.6,232,265.6,232H0z"/>
		
			<linearGradient id="XMLID_15_" gradientUnits="userSpaceOnUse" x1="687.0614" y1="204.4405" x2="781.1508" y2="-103.312" gradientTransform="matrix(1 0 0 -1 0 823)">
			<stop  offset="0" style="stop-color:#8DC63F"/>
			<stop  offset="1.159495e-002" style="stop-color:#8AC43F"/>
			<stop  offset="0.1846" style="stop-color:#66AF42"/>
			<stop  offset="0.3651" style="stop-color:#47A243"/>
			<stop  offset="0.5543" style="stop-color:#289A44"/>
			<stop  offset="0.7576" style="stop-color:#049544"/>
			<stop  offset="1" style="stop-color:#009444"/>
		</linearGradient>
		<path id="XMLID_3_" class="st9" d="M421.4,834.8c0,0,82.7-148.4,161.7-181.3s207.1-62.5,272.7-56.3s226.6,153.1,225,237.5
			L421.4,834.8L421.4,834.8z"/>
		
			<linearGradient id="XMLID_17_" gradientUnits="userSpaceOnUse" x1="1263.9302" y1="219.6903" x2="1398.4531" y2="-130.754" gradientTransform="matrix(1 0 0 -1 0 823)">
			<stop  offset="0" style="stop-color:#8DC63F"/>
			<stop  offset="1.159495e-002" style="stop-color:#8AC43F"/>
			<stop  offset="0.1846" style="stop-color:#66AF42"/>
			<stop  offset="0.3651" style="stop-color:#47A243"/>
			<stop  offset="0.5543" style="stop-color:#289A44"/>
			<stop  offset="0.7576" style="stop-color:#049544"/>
			<stop  offset="1" style="stop-color:#009444"/>
		</linearGradient>
		<path id="XMLID_6_" class="st10" d="M1005.8,826.9c0,0,142.2-167.2,185.9-179.7s129-75,165.3-76.6s307.1,160.9,335,252.3
			S1005.8,826.9,1005.8,826.9z"/>
	</g>
</g>
</svg>
